<?xml version="1.0" encoding="UTF-8" standalone="no"?>
<!DOCTYPE svg PUBLIC "-//W3C//DTD SVG 1.1//EN"
 "http://www.w3.org/Graphics/SVG/1.1/DTD/svg11.dtd">
<!-- Generated by graphviz version 5.0.0 (20220707.1540)
 -->
<!-- Title: dependencies Pages: 1 -->
<svg width="399pt" height="247pt"
 viewBox="0.00 0.00 399.00 246.80" xmlns="http://www.w3.org/2000/svg" xmlns:xlink="http://www.w3.org/1999/xlink">
<g id="graph0" class="graph" transform="scale(1 1) rotate(0) translate(4 242.8)">
<title>dependencies</title>
<polygon fill="white" stroke="transparent" points="-4,4 -4,-242.8 395,-242.8 395,4 -4,4"/>
<text text-anchor="middle" x="195.5" y="-8.2" font-family="sans-serif" font-size="14.00">dependencies</text>
<g id="clust1" class="cluster">
<title>cluster_ExploreContainerComponentModule</title>
<polygon fill="none" stroke="black" stroke-dasharray="1,5" points="8,-32.8 8,-230.8 383,-230.8 383,-32.8 8,-32.8"/>
</g>
<g id="clust6" class="cluster">
<title>cluster_ExploreContainerComponentModule_exports</title>
<polygon fill="none" stroke="black" points="16,-170.8 16,-222.8 375,-222.8 375,-170.8 16,-170.8"/>
</g>
<g id="clust2" class="cluster">
<title>cluster_ExploreContainerComponentModule_declarations</title>
<polygon fill="none" stroke="black" points="19,-40.8 19,-92.8 371,-92.8 371,-40.8 19,-40.8"/>
</g>
<!-- ExploreContainerComponent -->
<g id="node1" class="node">
<title>ExploreContainerComponent</title>
<polygon fill="#ffffb3" stroke="black" points="363.36,-84.8 182.64,-84.8 182.64,-48.8 363.36,-48.8 363.36,-84.8"/>
<text text-anchor="middle" x="273" y="-62.6" font-family="Times,serif" font-size="14.00">ExploreContainerComponent</text>
</g>
<!-- ExploreContainerComponentModule -->
<g id="node3" class="node">
<title>ExploreContainerComponentModule</title>
<polygon fill="#8dd3c7" stroke="black" points="307.41,-149.8 304.41,-153.8 283.41,-153.8 280.41,-149.8 82.59,-149.8 82.59,-113.8 307.41,-113.8 307.41,-149.8"/>
<text text-anchor="middle" x="195" y="-127.6" font-family="Times,serif" font-size="14.00">ExploreContainerComponentModule</text>
</g>
<!-- ExploreContainerComponent&#45;&gt;ExploreContainerComponentModule -->
<g id="edge1" class="edge">
<title>ExploreContainerComponent&#45;&gt;ExploreContainerComponentModule</title>
<path fill="none" stroke="black" d="M244.89,-84.91C244.89,-84.91 244.89,-103.79 244.89,-103.79"/>
<polygon fill="black" stroke="black" points="241.39,-103.79 244.89,-113.79 248.39,-103.79 241.39,-103.79"/>
</g>
<!-- SearchbarComponent -->
<g id="node2" class="node">
<title>SearchbarComponent</title>
<polygon fill="#ffffb3" stroke="black" points="164.8,-84.8 27.2,-84.8 27.2,-48.8 164.8,-48.8 164.8,-84.8"/>
<text text-anchor="middle" x="96" y="-62.6" font-family="Times,serif" font-size="14.00">SearchbarComponent</text>
</g>
<!-- SearchbarComponent&#45;&gt;ExploreContainerComponentModule -->
<g id="edge2" class="edge">
<title>SearchbarComponent&#45;&gt;ExploreContainerComponentModule</title>
<path fill="none" stroke="black" d="M123.72,-84.91C123.72,-84.91 123.72,-103.79 123.72,-103.79"/>
<polygon fill="black" stroke="black" points="120.22,-103.79 123.72,-113.79 127.22,-103.79 120.22,-103.79"/>
</g>
<!-- ExploreContainerComponent  -->
<g id="node4" class="node">
<title>ExploreContainerComponent </title>
<polygon fill="#fb8072" stroke="black" points="367.36,-214.8 182.64,-214.8 182.64,-178.8 367.36,-178.8 367.36,-214.8"/>
<text text-anchor="middle" x="275" y="-192.6" font-family="Times,serif" font-size="14.00">ExploreContainerComponent </text>
</g>
<!-- ExploreContainerComponentModule&#45;&gt;ExploreContainerComponent  -->
<g id="edge3" class="edge">
<title>ExploreContainerComponentModule&#45;&gt;ExploreContainerComponent </title>
<path fill="none" stroke="black" stroke-dasharray="5,2" d="M245.01,-149.91C245.01,-149.91 245.01,-168.79 245.01,-168.79"/>
<polygon fill="black" stroke="black" points="241.51,-168.79 245.01,-178.79 248.51,-168.79 241.51,-168.79"/>
</g>
<!-- SearchbarComponent  -->
<g id="node5" class="node">
<title>SearchbarComponent </title>
<polygon fill="#fb8072" stroke="black" points="164.3,-214.8 23.7,-214.8 23.7,-178.8 164.3,-178.8 164.3,-214.8"/>
<text text-anchor="middle" x="94" y="-192.6" font-family="Times,serif" font-size="14.00">SearchbarComponent </text>
</g>
<!-- ExploreContainerComponentModule&#45;&gt;SearchbarComponent  -->
<g id="edge4" class="edge">
<title>ExploreContainerComponentModule&#45;&gt;SearchbarComponent </title>
<path fill="none" stroke="black" stroke-dasharray="5,2" d="M123.6,-149.91C123.6,-149.91 123.6,-168.79 123.6,-168.79"/>
<polygon fill="black" stroke="black" points="120.1,-168.79 123.6,-178.79 127.1,-168.79 120.1,-168.79"/>
</g>
</g>
</svg>
