<?xml version="1.0" encoding="UTF-8" standalone="no"?>
<!DOCTYPE svg PUBLIC "-//W3C//DTD SVG 1.1//EN"
 "http://www.w3.org/Graphics/SVG/1.1/DTD/svg11.dtd">
<!-- Generated by graphviz version 5.0.0 (20220707.1540)
 -->
<!-- Title: dependencies Pages: 1 -->
<svg width="392pt" height="174pt"
 viewBox="0.00 0.00 392.00 173.80" xmlns="http://www.w3.org/2000/svg" xmlns:xlink="http://www.w3.org/1999/xlink">
<g id="graph0" class="graph" transform="scale(1 1) rotate(0) translate(4 169.8)">
<title>dependencies</title>
<polygon fill="white" stroke="transparent" points="-4,4 -4,-169.8 388,-169.8 388,4 -4,4"/>
<text text-anchor="middle" x="192" y="-8.2" font-family="sans-serif" font-size="14.00">dependencies</text>
<g id="clust1" class="cluster">
<title>cluster_LiveSessionPageModule</title>
<polygon fill="none" stroke="black" stroke-dasharray="1,5" points="8,-32.8 8,-157.8 376,-157.8 376,-32.8 8,-32.8"/>
</g>
<g id="clust2" class="cluster">
<title>cluster_LiveSessionPageModule_declarations</title>
<polygon fill="none" stroke="black" points="240,-40.8 240,-92.8 368,-92.8 368,-40.8 240,-40.8"/>
</g>
<g id="clust4" class="cluster">
<title>cluster_LiveSessionPageModule_imports</title>
<polygon fill="none" stroke="black" points="16,-40.8 16,-92.8 232,-92.8 232,-40.8 16,-40.8"/>
</g>
<!-- LiveSessionPage -->
<g id="node1" class="node">
<title>LiveSessionPage</title>
<polygon fill="#ffffb3" stroke="black" points="359.66,-84.8 248.34,-84.8 248.34,-48.8 359.66,-48.8 359.66,-84.8"/>
<text text-anchor="middle" x="304" y="-62.6" font-family="Times,serif" font-size="14.00">LiveSessionPage</text>
</g>
<!-- LiveSessionPageModule -->
<g id="node2" class="node">
<title>LiveSessionPageModule</title>
<polygon fill="#8dd3c7" stroke="black" points="284.71,-149.8 281.71,-153.8 260.71,-153.8 257.71,-149.8 129.29,-149.8 129.29,-113.8 284.71,-113.8 284.71,-149.8"/>
<text text-anchor="middle" x="207" y="-127.6" font-family="Times,serif" font-size="14.00">LiveSessionPageModule</text>
</g>
<!-- LiveSessionPage&#45;&gt;LiveSessionPageModule -->
<g id="edge1" class="edge">
<title>LiveSessionPage&#45;&gt;LiveSessionPageModule</title>
<path fill="none" stroke="black" d="M266.39,-84.91C266.39,-84.91 266.39,-103.79 266.39,-103.79"/>
<polygon fill="black" stroke="black" points="262.89,-103.79 266.39,-113.79 269.89,-103.79 262.89,-103.79"/>
</g>
<!-- LiveSessionPageRoutingModule -->
<g id="node3" class="node">
<title>LiveSessionPageRoutingModule</title>
<polygon fill="#8dd3c7" stroke="black" points="224.32,-84.8 221.32,-88.8 200.32,-88.8 197.32,-84.8 23.68,-84.8 23.68,-48.8 224.32,-48.8 224.32,-84.8"/>
<text text-anchor="middle" x="124" y="-62.6" font-family="Times,serif" font-size="14.00">LiveSessionPageRoutingModule</text>
</g>
<!-- LiveSessionPageRoutingModule&#45;&gt;LiveSessionPageModule -->
<g id="edge2" class="edge">
<title>LiveSessionPageRoutingModule&#45;&gt;LiveSessionPageModule</title>
<path fill="none" stroke="black" d="M176.78,-84.91C176.78,-84.91 176.78,-103.79 176.78,-103.79"/>
<polygon fill="black" stroke="black" points="173.28,-103.79 176.78,-113.79 180.28,-103.79 173.28,-103.79"/>
</g>
</g>
</svg>
