<?xml version="1.0" encoding="UTF-8" standalone="no"?>
<!DOCTYPE svg PUBLIC "-//W3C//DTD SVG 1.1//EN"
 "http://www.w3.org/Graphics/SVG/1.1/DTD/svg11.dtd">
<!-- Generated by graphviz version 5.0.0 (20220707.1540)
 -->
<!-- Title: dependencies Pages: 1 -->
<svg width="428pt" height="174pt"
 viewBox="0.00 0.00 428.00 173.80" xmlns="http://www.w3.org/2000/svg" xmlns:xlink="http://www.w3.org/1999/xlink">
<g id="graph0" class="graph" transform="scale(1 1) rotate(0) translate(4 169.8)">
<title>dependencies</title>
<polygon fill="white" stroke="transparent" points="-4,4 -4,-169.8 424,-169.8 424,4 -4,4"/>
<text text-anchor="middle" x="210" y="-8.2" font-family="sans-serif" font-size="14.00">dependencies</text>
<g id="clust1" class="cluster">
<title>cluster_DefineMessagePageModule</title>
<polygon fill="none" stroke="black" stroke-dasharray="1,5" points="8,-32.8 8,-157.8 412,-157.8 412,-32.8 8,-32.8"/>
</g>
<g id="clust4" class="cluster">
<title>cluster_DefineMessagePageModule_imports</title>
<polygon fill="none" stroke="black" points="170,-40.8 170,-92.8 404,-92.8 404,-40.8 170,-40.8"/>
</g>
<g id="clust2" class="cluster">
<title>cluster_DefineMessagePageModule_declarations</title>
<polygon fill="none" stroke="black" points="16,-40.8 16,-92.8 162,-92.8 162,-40.8 16,-40.8"/>
</g>
<!-- DefineMessagePage -->
<g id="node1" class="node">
<title>DefineMessagePage</title>
<polygon fill="#ffffb3" stroke="black" points="154.29,-84.8 23.71,-84.8 23.71,-48.8 154.29,-48.8 154.29,-84.8"/>
<text text-anchor="middle" x="89" y="-62.6" font-family="Times,serif" font-size="14.00">DefineMessagePage</text>
</g>
<!-- DefineMessagePageModule -->
<g id="node2" class="node">
<title>DefineMessagePageModule</title>
<polygon fill="#8dd3c7" stroke="black" points="281.84,-149.8 278.84,-153.8 257.84,-153.8 254.84,-149.8 108.16,-149.8 108.16,-113.8 281.84,-113.8 281.84,-149.8"/>
<text text-anchor="middle" x="195" y="-127.6" font-family="Times,serif" font-size="14.00">DefineMessagePageModule</text>
</g>
<!-- DefineMessagePage&#45;&gt;DefineMessagePageModule -->
<g id="edge1" class="edge">
<title>DefineMessagePage&#45;&gt;DefineMessagePageModule</title>
<path fill="none" stroke="black" d="M131.11,-84.91C131.11,-84.91 131.11,-103.79 131.11,-103.79"/>
<polygon fill="black" stroke="black" points="127.61,-103.79 131.11,-113.79 134.61,-103.79 127.61,-103.79"/>
</g>
<!-- DefineMessagePageRoutingModule -->
<g id="node3" class="node">
<title>DefineMessagePageRoutingModule</title>
<polygon fill="#8dd3c7" stroke="black" points="396.46,-84.8 393.46,-88.8 372.46,-88.8 369.46,-84.8 177.54,-84.8 177.54,-48.8 396.46,-48.8 396.46,-84.8"/>
<text text-anchor="middle" x="287" y="-62.6" font-family="Times,serif" font-size="14.00">DefineMessagePageRoutingModule</text>
</g>
<!-- DefineMessagePageRoutingModule&#45;&gt;DefineMessagePageModule -->
<g id="edge2" class="edge">
<title>DefineMessagePageRoutingModule&#45;&gt;DefineMessagePageModule</title>
<path fill="none" stroke="black" d="M229.72,-84.91C229.72,-84.91 229.72,-103.79 229.72,-103.79"/>
<polygon fill="black" stroke="black" points="226.22,-103.79 229.72,-113.79 233.22,-103.79 226.22,-103.79"/>
</g>
</g>
</svg>
