<?xml version="1.0" encoding="UTF-8" standalone="no"?>
<!DOCTYPE svg PUBLIC "-//W3C//DTD SVG 1.1//EN"
 "http://www.w3.org/Graphics/SVG/1.1/DTD/svg11.dtd">
<!-- Generated by graphviz version 5.0.0 (20220707.1540)
 -->
<!-- Title: dependencies Pages: 1 -->
<svg width="390pt" height="174pt"
 viewBox="0.00 0.00 390.00 173.80" xmlns="http://www.w3.org/2000/svg" xmlns:xlink="http://www.w3.org/1999/xlink">
<g id="graph0" class="graph" transform="scale(1 1) rotate(0) translate(4 169.8)">
<title>dependencies</title>
<polygon fill="white" stroke="transparent" points="-4,4 -4,-169.8 386,-169.8 386,4 -4,4"/>
<text text-anchor="middle" x="191" y="-8.2" font-family="sans-serif" font-size="14.00">dependencies</text>
<g id="clust1" class="cluster">
<title>cluster_AddContactPageModule</title>
<polygon fill="none" stroke="black" stroke-dasharray="1,5" points="8,-32.8 8,-157.8 374,-157.8 374,-32.8 8,-32.8"/>
</g>
<g id="clust2" class="cluster">
<title>cluster_AddContactPageModule_declarations</title>
<polygon fill="none" stroke="black" points="240,-40.8 240,-92.8 366,-92.8 366,-40.8 240,-40.8"/>
</g>
<g id="clust4" class="cluster">
<title>cluster_AddContactPageModule_imports</title>
<polygon fill="none" stroke="black" points="16,-40.8 16,-92.8 232,-92.8 232,-40.8 16,-40.8"/>
</g>
<!-- AddContactPage -->
<g id="node1" class="node">
<title>AddContactPage</title>
<polygon fill="#ffffb3" stroke="black" points="358.37,-84.8 247.63,-84.8 247.63,-48.8 358.37,-48.8 358.37,-84.8"/>
<text text-anchor="middle" x="303" y="-62.6" font-family="Times,serif" font-size="14.00">AddContactPage</text>
</g>
<!-- AddContactPageModule -->
<g id="node2" class="node">
<title>AddContactPageModule</title>
<polygon fill="#8dd3c7" stroke="black" points="283.42,-149.8 280.42,-153.8 259.42,-153.8 256.42,-149.8 128.58,-149.8 128.58,-113.8 283.42,-113.8 283.42,-149.8"/>
<text text-anchor="middle" x="206" y="-127.6" font-family="Times,serif" font-size="14.00">AddContactPageModule</text>
</g>
<!-- AddContactPage&#45;&gt;AddContactPageModule -->
<g id="edge1" class="edge">
<title>AddContactPage&#45;&gt;AddContactPageModule</title>
<path fill="none" stroke="black" d="M265.39,-84.91C265.39,-84.91 265.39,-103.79 265.39,-103.79"/>
<polygon fill="black" stroke="black" points="261.89,-103.79 265.39,-113.79 268.89,-103.79 261.89,-103.79"/>
</g>
<!-- AddContactPageRoutingModule -->
<g id="node3" class="node">
<title>AddContactPageRoutingModule</title>
<polygon fill="#8dd3c7" stroke="black" points="223.54,-84.8 220.54,-88.8 199.54,-88.8 196.54,-84.8 24.46,-84.8 24.46,-48.8 223.54,-48.8 223.54,-84.8"/>
<text text-anchor="middle" x="124" y="-62.6" font-family="Times,serif" font-size="14.00">AddContactPageRoutingModule</text>
</g>
<!-- AddContactPageRoutingModule&#45;&gt;AddContactPageModule -->
<g id="edge2" class="edge">
<title>AddContactPageRoutingModule&#45;&gt;AddContactPageModule</title>
<path fill="none" stroke="black" d="M176.28,-84.91C176.28,-84.91 176.28,-103.79 176.28,-103.79"/>
<polygon fill="black" stroke="black" points="172.78,-103.79 176.28,-113.79 179.78,-103.79 172.78,-103.79"/>
</g>
</g>
</svg>
