<?xml version="1.0" encoding="UTF-8" standalone="no"?>
<!DOCTYPE svg PUBLIC "-//W3C//DTD SVG 1.1//EN"
 "http://www.w3.org/Graphics/SVG/1.1/DTD/svg11.dtd">
<!-- Generated by graphviz version 5.0.0 (20220707.1540)
 -->
<!-- Title: dependencies Pages: 1 -->
<svg width="352pt" height="174pt"
 viewBox="0.00 0.00 352.00 173.80" xmlns="http://www.w3.org/2000/svg" xmlns:xlink="http://www.w3.org/1999/xlink">
<g id="graph0" class="graph" transform="scale(1 1) rotate(0) translate(4 169.8)">
<title>dependencies</title>
<polygon fill="white" stroke="transparent" points="-4,4 -4,-169.8 348,-169.8 348,4 -4,4"/>
<text text-anchor="middle" x="172" y="-8.2" font-family="sans-serif" font-size="14.00">dependencies</text>
<g id="clust1" class="cluster">
<title>cluster_ContactsPageModule</title>
<polygon fill="none" stroke="black" stroke-dasharray="1,5" points="8,-32.8 8,-157.8 336,-157.8 336,-32.8 8,-32.8"/>
</g>
<g id="clust2" class="cluster">
<title>cluster_ContactsPageModule_declarations</title>
<polygon fill="none" stroke="black" points="220,-40.8 220,-92.8 328,-92.8 328,-40.8 220,-40.8"/>
</g>
<g id="clust4" class="cluster">
<title>cluster_ContactsPageModule_imports</title>
<polygon fill="none" stroke="black" points="16,-40.8 16,-92.8 212,-92.8 212,-40.8 16,-40.8"/>
</g>
<!-- ContactsPage -->
<g id="node1" class="node">
<title>ContactsPage</title>
<polygon fill="#ffffb3" stroke="black" points="320.21,-84.8 227.79,-84.8 227.79,-48.8 320.21,-48.8 320.21,-84.8"/>
<text text-anchor="middle" x="274" y="-62.6" font-family="Times,serif" font-size="14.00">ContactsPage</text>
</g>
<!-- ContactsPageModule -->
<g id="node2" class="node">
<title>ContactsPageModule</title>
<polygon fill="#8dd3c7" stroke="black" points="254.76,-149.8 251.76,-153.8 230.76,-153.8 227.76,-149.8 119.24,-149.8 119.24,-113.8 254.76,-113.8 254.76,-149.8"/>
<text text-anchor="middle" x="187" y="-127.6" font-family="Times,serif" font-size="14.00">ContactsPageModule</text>
</g>
<!-- ContactsPage&#45;&gt;ContactsPageModule -->
<g id="edge1" class="edge">
<title>ContactsPage&#45;&gt;ContactsPageModule</title>
<path fill="none" stroke="black" d="M241.39,-84.91C241.39,-84.91 241.39,-103.79 241.39,-103.79"/>
<polygon fill="black" stroke="black" points="237.89,-103.79 241.39,-113.79 244.89,-103.79 237.89,-103.79"/>
</g>
<!-- ContactsPageRoutingModule -->
<g id="node3" class="node">
<title>ContactsPageRoutingModule</title>
<polygon fill="#8dd3c7" stroke="black" points="204.38,-84.8 201.38,-88.8 180.38,-88.8 177.38,-84.8 23.62,-84.8 23.62,-48.8 204.38,-48.8 204.38,-84.8"/>
<text text-anchor="middle" x="114" y="-62.6" font-family="Times,serif" font-size="14.00">ContactsPageRoutingModule</text>
</g>
<!-- ContactsPageRoutingModule&#45;&gt;ContactsPageModule -->
<g id="edge2" class="edge">
<title>ContactsPageRoutingModule&#45;&gt;ContactsPageModule</title>
<path fill="none" stroke="black" d="M161.78,-84.91C161.78,-84.91 161.78,-103.79 161.78,-103.79"/>
<polygon fill="black" stroke="black" points="158.28,-103.79 161.78,-113.79 165.28,-103.79 158.28,-103.79"/>
</g>
</g>
</svg>
